<?xml version="1.0" encoding="UTF-8"?>
<svg xmlns="http://www.w3.org/2000/svg" viewBox="0 0 480 360" role="img" aria-labelledby="title desc">
  <title id="title">Ans Display Inspired logo</title>
  <desc id="desc">The Ans wordmark above an orange equals sign.</desc>
  <path d="M117.966 70.739 L103.171 135.773 L132.867 135.773 Z M98.807 42 L137.231 42 L180.126 200.913 L148.727 200.913 L138.934 161.637 L96.891 161.637 L87.311 200.913 L55.912 200.913 Z M295.455 123.532 L295.455 200.913 L264.481 200.913 L264.481 128.322 Q264.481 115.336 260.809 109.748 Q257.137 104.16 248.834 104.16 Q240.426 104.16 235.583 111.717 Q230.74 119.275 230.74 132.686 L230.74 200.913 L199.766 200.913 L199.766 81.702 L230.74 81.702 L230.74 99.583 Q234.039 89.685 242.022 84.256 Q250.005 78.828 261.288 78.828 Q278.212 78.828 286.833 90.057 Q295.455 101.286 295.455 123.532 Z M415.999 85.427 L415.999 112.675 Q407.377 107.141 398.064 104.32 Q388.75 101.499 379.384 101.499 Q368.953 101.499 363.631 104.533 Q358.309 107.566 358.309 113.527 Q358.309 122.042 381.087 127.364 L382.258 127.683 L391.199 129.812 Q408.229 133.857 416.159 142.851 Q424.088 151.845 424.088 167.172 Q424.088 185.586 412.007 194.793 Q399.927 204 375.659 204 Q364.908 204 353.626 202.137 Q342.343 200.275 330.741 196.549 L330.741 169.301 Q341.066 175.155 351.763 178.242 Q362.46 181.329 372.465 181.329 Q383.429 181.329 389.07 178.135 Q394.711 174.942 394.711 168.875 Q394.711 162.915 390.72 159.721 Q386.728 156.528 371.72 152.909 L363.099 150.993 Q345.217 146.949 337.021 138.327 Q328.825 129.706 328.825 115.23 Q328.825 97.987 341.279 88.407 Q353.732 78.828 376.297 78.828 Q386.409 78.828 396.467 80.478 Q406.526 82.127 415.999 85.427 Z" fill="#F2F4F7" fill-rule="evenodd"/>
  <rect x="174" y="250" width="132" height="17" rx="3" fill="#E8833A"/>
  <rect x="174" y="291" width="132" height="17" rx="3" fill="#E8833A"/>
</svg>